<mxfile host="app.diagrams.net" modified="2023-09-06T23:15:33.136Z" agent="Mozilla/5.0 (X11; Linux x86_64; rv:109.0) Gecko/20100101 Firefox/115.0" etag="8TqFSnWxTw0Y6h6_gcEC" version="21.7.2" type="device">
  <diagram name="Page-1" id="mCUC28rghNYUG321jmRj">
    <mxGraphModel dx="954" dy="602" grid="1" gridSize="10" guides="1" tooltips="1" connect="1" arrows="1" fold="1" page="1" pageScale="1" pageWidth="850" pageHeight="1100" math="0" shadow="0">
      <root>
        <mxCell id="0" />
        <mxCell id="1" parent="0" />
        <mxCell id="muqDcj0UbtJMR7L4Sbzh-1" value="&lt;div&gt;FIM&lt;/div&gt;" style="strokeWidth=2;html=1;shape=mxgraph.flowchart.terminator;whiteSpace=wrap;" vertex="1" parent="1">
          <mxGeometry x="390" y="460" width="100" height="60" as="geometry" />
        </mxCell>
        <mxCell id="muqDcj0UbtJMR7L4Sbzh-5" value="" style="edgeStyle=orthogonalEdgeStyle;rounded=0;orthogonalLoop=1;jettySize=auto;html=1;" edge="1" parent="1" source="muqDcj0UbtJMR7L4Sbzh-2" target="muqDcj0UbtJMR7L4Sbzh-3">
          <mxGeometry relative="1" as="geometry" />
        </mxCell>
        <mxCell id="muqDcj0UbtJMR7L4Sbzh-2" value="INICIO" style="strokeWidth=2;html=1;shape=mxgraph.flowchart.terminator;whiteSpace=wrap;" vertex="1" parent="1">
          <mxGeometry x="190" y="140" width="100" height="60" as="geometry" />
        </mxCell>
        <mxCell id="muqDcj0UbtJMR7L4Sbzh-7" value="" style="edgeStyle=orthogonalEdgeStyle;rounded=0;orthogonalLoop=1;jettySize=auto;html=1;" edge="1" parent="1" source="muqDcj0UbtJMR7L4Sbzh-3" target="muqDcj0UbtJMR7L4Sbzh-6">
          <mxGeometry relative="1" as="geometry" />
        </mxCell>
        <mxCell id="muqDcj0UbtJMR7L4Sbzh-3" value="DECLARE preco e resultado como float" style="rounded=0;whiteSpace=wrap;html=1;" vertex="1" parent="1">
          <mxGeometry x="180" y="250" width="120" height="60" as="geometry" />
        </mxCell>
        <mxCell id="muqDcj0UbtJMR7L4Sbzh-10" value="" style="edgeStyle=orthogonalEdgeStyle;rounded=0;orthogonalLoop=1;jettySize=auto;html=1;" edge="1" parent="1" source="muqDcj0UbtJMR7L4Sbzh-6" target="muqDcj0UbtJMR7L4Sbzh-9">
          <mxGeometry relative="1" as="geometry" />
        </mxCell>
        <mxCell id="muqDcj0UbtJMR7L4Sbzh-6" value="&quot;Escreva o valor do produto&quot;" style="strokeWidth=2;html=1;shape=mxgraph.flowchart.document2;whiteSpace=wrap;size=0.23333333333333334;" vertex="1" parent="1">
          <mxGeometry x="170" y="350" width="140" height="60" as="geometry" />
        </mxCell>
        <mxCell id="muqDcj0UbtJMR7L4Sbzh-12" value="" style="edgeStyle=orthogonalEdgeStyle;rounded=0;orthogonalLoop=1;jettySize=auto;html=1;" edge="1" parent="1" source="muqDcj0UbtJMR7L4Sbzh-9" target="muqDcj0UbtJMR7L4Sbzh-11">
          <mxGeometry relative="1" as="geometry" />
        </mxCell>
        <mxCell id="muqDcj0UbtJMR7L4Sbzh-9" value="LEIA preco" style="shape=parallelogram;perimeter=parallelogramPerimeter;whiteSpace=wrap;html=1;fixedSize=1;" vertex="1" parent="1">
          <mxGeometry x="350" y="350" width="120" height="60" as="geometry" />
        </mxCell>
        <mxCell id="muqDcj0UbtJMR7L4Sbzh-14" value="" style="edgeStyle=orthogonalEdgeStyle;rounded=0;orthogonalLoop=1;jettySize=auto;html=1;" edge="1" parent="1" source="muqDcj0UbtJMR7L4Sbzh-11" target="muqDcj0UbtJMR7L4Sbzh-13">
          <mxGeometry relative="1" as="geometry" />
        </mxCell>
        <mxCell id="muqDcj0UbtJMR7L4Sbzh-11" value="resultado = preco * (1 - 0,1);" style="rounded=0;whiteSpace=wrap;html=1;" vertex="1" parent="1">
          <mxGeometry x="510" y="350" width="170" height="60" as="geometry" />
        </mxCell>
        <mxCell id="muqDcj0UbtJMR7L4Sbzh-15" value="" style="edgeStyle=orthogonalEdgeStyle;rounded=0;orthogonalLoop=1;jettySize=auto;html=1;" edge="1" parent="1" source="muqDcj0UbtJMR7L4Sbzh-13" target="muqDcj0UbtJMR7L4Sbzh-1">
          <mxGeometry relative="1" as="geometry" />
        </mxCell>
        <mxCell id="muqDcj0UbtJMR7L4Sbzh-13" value="&quot;O novo valor do produto Ã© {resultado}&quot;" style="strokeWidth=2;html=1;shape=mxgraph.flowchart.document2;whiteSpace=wrap;size=0.1625;" vertex="1" parent="1">
          <mxGeometry x="525" y="450" width="140" height="80" as="geometry" />
        </mxCell>
      </root>
    </mxGraphModel>
  </diagram>
</mxfile>
